<?xml version="1.0" encoding="UTF-8" standalone="no"?>
<svg
   xmlns:dc="http://purl.org/dc/elements/1.1/"
   xmlns:cc="http://creativecommons.org/ns#"
   xmlns:rdf="http://www.w3.org/1999/02/22-rdf-syntax-ns#"
   xmlns:svg="http://www.w3.org/2000/svg"
   xmlns="http://www.w3.org/2000/svg"
   xmlns:sodipodi="http://sodipodi.sourceforge.net/DTD/sodipodi-0.dtd"
   xmlns:inkscape="http://www.inkscape.org/namespaces/inkscape"
   height="16"
   width="16"
   version="1.1"
   id="svg4000"
   sodipodi:docname="document-open-symbolic.svg"
   inkscape:version="0.92.5 (2060ec1f9f, 2020-04-08)">
  <metadata
     id="metadata4006">
    <rdf:RDF>
      <cc:Work
         rdf:about="">
        <dc:format>image/svg+xml</dc:format>
        <dc:type
           rdf:resource="http://purl.org/dc/dcmitype/StillImage" />
        <dc:title></dc:title>
      </cc:Work>
    </rdf:RDF>
  </metadata>
  <defs
     id="defs4004" />
  <sodipodi:namedview
     pagecolor="#ffffff"
     bordercolor="#666666"
     borderopacity="1"
     objecttolerance="10"
     gridtolerance="10"
     guidetolerance="10"
     inkscape:pageopacity="0"
     inkscape:pageshadow="2"
     inkscape:window-width="1294"
     inkscape:window-height="704"
     id="namedview4002"
     showgrid="false"
     showborder="true"
     inkscape:zoom="1"
     inkscape:cx="-2.2915738"
     inkscape:cy="8"
     inkscape:window-x="72"
     inkscape:window-y="27"
     inkscape:window-maximized="1"
     inkscape:current-layer="svg4000">
    <inkscape:grid
       type="xygrid"
       id="grid4566" />
  </sodipodi:namedview>
  <path
     style="line-height:normal;font-variant-ligatures:none;font-variant-position:normal;font-variant-caps:normal;font-variant-numeric:normal;font-variant-alternates:normal;font-feature-settings:normal;text-indent:0;text-align:start;text-decoration:none;text-decoration-line:none;text-decoration-style:solid;text-decoration-color:#000000;text-transform:none;shape-padding:0;isolation:auto;mix-blend-mode:normal;fill:#808080;fill-opacity:1;marker:none"
     d="M 3.9941406 1 C 2.7361406 1.015 1.8155 0.9707187 1.0625 1.3867188 C 0.67265512 1.6078906 0.37476772 1.9611988 0.22265625 2.3828125 C 0.05865625 2.8208125 0 3.343 0 4 L 0 12 C 0 12.658 0.05765625 13.179187 0.22265625 13.617188 C 0.38665625 14.056188 0.6855 14.407234 1.0625 14.615234 C 1.5885 14.905234 2.251 14.982 3 15 L 3 14 C 2.334 13.968 1.795875 13.876281 1.546875 13.738281 C 1.362875 13.638281 1.2571564 13.525625 1.1601562 13.265625 C 1.0631563 13.005625 1 12.592 1 12 L 1 4 C 1 3.408 1.0631564 2.994375 1.1601562 2.734375 C 1.2581563 2.474375 1.362875 2.3627188 1.546875 2.2617188 C 1.913875 2.0587187 2.7418594 2.015 4.0058594 2 L 6.5351562 2 L 8.5566406 4 L 11.992188 4 C 13.256187 4.015 14.083172 4.059719 14.451172 4.2617188 C 14.634172 4.3617187 14.739891 4.474375 14.837891 4.734375 C 14.935891 4.994375 15 5.408 15 6 L 15 12 C 15 12.592 14.93684 13.005625 14.839844 13.265625 C 14.741844 13.525625 14.637125 13.637281 14.453125 13.738281 C 14.349125 13.795281 14.18 13.966 14 14 L 13.923828 14 C 13.972066 13.701687 14 13.377872 14 13 L 14 8 C 14 7.342 13.94039 6.8208123 13.775391 6.3828125 C 13.623977 5.9608755 13.326885 5.6068831 12.9375 5.3847656 C 12.1855 4.9687657 11.263859 5.015 10.005859 5 L 7.9980469 5 L 7.9941406 5 C 6.7361406 5.015 5.8155 4.969766 5.0625 5.3847656 C 4.673491 5.607066 4.3757724 5.9610361 4.2246094 6.3828125 C 4.0596094 6.8198125 4 7.343 4 8 L 4 13 C 4 13.658 4.0596094 14.179187 4.2246094 14.617188 C 4.3886094 15.056188 4.6865 15.407234 5.0625 15.615234 C 5.8155 16.031234 6.7361406 15.985 7.9941406 16 L 10.005859 16 C 11.263859 15.985 12.1845 16.030239 12.9375 15.615234 C 13.200697 15.465099 13.415748 15.250896 13.578125 15 L 14 15 L 14.009766 15 L 14.009766 14.996094 C 14.345781 14.941189 14.657388 14.770632 14.9375 14.615234 C 15.326853 14.393085 15.624014 14.039125 15.775391 13.617188 C 15.940391 13.179187 16 12.657 16 12 L 16 6 C 16 5.342 15.940391 4.8208125 15.775391 4.3828125 C 15.624014 3.9608756 15.326853 3.6069146 14.9375 3.3847656 C 14.1845 2.9687656 13.263859 3.015 12.005859 3 L 8.9667969 3 L 6.9453125 1 L 3.9960938 1 L 3.9941406 1 z M 8 6 L 10 6 C 11.259 6.015 12.087125 6.059719 12.453125 6.2617188 C 12.637125 6.3617187 12.742844 6.474375 12.839844 6.734375 C 12.936844 6.994375 13 7.4080001 13 8 L 13 13 C 13 13.592 12.93684 14.005625 12.839844 14.265625 C 12.741844 14.525625 12.638078 14.637282 12.455078 14.738281 C 12.089076 14.940281 11.258 14.985 10 15 L 8 15 C 6.741 14.985 5.9099219 14.94028 5.5449219 14.738281 C 5.3609219 14.638281 5.2581562 14.525625 5.1601562 14.265625 C 5.0631562 14.005625 5 13.592 5 13 L 5 8 C 5 7.408 5.0631602 6.9943749 5.1601562 6.734375 C 5.2581562 6.474375 5.3609219 6.3627187 5.5449219 6.2617188 C 5.9099219 6.0597188 6.739999 6.015 8 6 z M 5.9941406 8 L 5.9941406 9 L 12.013672 9 L 12.013672 8 L 5.9941406 8 z M 5.9941406 10 L 5.9941406 11 L 12.013672 11 L 12.013672 10 L 5.9941406 10 z M 5.9863281 12 L 5.9863281 13 L 8.9941406 13 L 8.9941406 12 L 5.9863281 12 z "
     id="path3998" />
</svg>
