<?xml version="1.0" encoding="UTF-8" standalone="no"?>
<svg
   xmlns:dc="http://purl.org/dc/elements/1.1/"
   xmlns:cc="http://creativecommons.org/ns#"
   xmlns:rdf="http://www.w3.org/1999/02/22-rdf-syntax-ns#"
   xmlns:svg="http://www.w3.org/2000/svg"
   xmlns="http://www.w3.org/2000/svg"
   xmlns:sodipodi="http://sodipodi.sourceforge.net/DTD/sodipodi-0.dtd"
   xmlns:inkscape="http://www.inkscape.org/namespaces/inkscape"
   height="16"
   width="16"
   version="1.1"
   id="svg24"
   sodipodi:docname="edit-paste-symbolic.svg"
   inkscape:version="0.92.5 (2060ec1f9f, 2020-04-08)">
  <metadata
     id="metadata30">
    <rdf:RDF>
      <cc:Work
         rdf:about="">
        <dc:format>image/svg+xml</dc:format>
        <dc:type
           rdf:resource="http://purl.org/dc/dcmitype/StillImage" />
        <dc:title></dc:title>
      </cc:Work>
    </rdf:RDF>
  </metadata>
  <defs
     id="defs28" />
  <sodipodi:namedview
     pagecolor="#ffffff"
     bordercolor="#666666"
     borderopacity="1"
     objecttolerance="10"
     gridtolerance="10"
     guidetolerance="10"
     inkscape:pageopacity="0"
     inkscape:pageshadow="2"
     inkscape:window-width="1294"
     inkscape:window-height="704"
     id="namedview26"
     showgrid="false"
     showborder="true"
     inkscape:zoom="1"
     inkscape:cx="8"
     inkscape:cy="10.153523"
     inkscape:window-x="72"
     inkscape:window-y="27"
     inkscape:window-maximized="1"
     inkscape:current-layer="svg24">
    <inkscape:grid
       type="xygrid"
       id="grid1932" />
  </sodipodi:namedview>
  <path
     style="line-height:normal;text-indent:0;text-align:start;text-decoration:none;text-decoration-line:none;text-decoration-style:solid;text-decoration-color:#000000;text-transform:none;isolation:auto;mix-blend-mode:normal;fill:#808080;fill-opacity:1;stroke-width:1.00084746;marker:none"
     d="M 7,0 C 5.901,0 5,0.90404448 5,2.0039062 H 4 v 0.025391 C 3.25,2.0483292 2.5905,2.0991314 2.0625,2.390625 1.672607,2.6122369 1.3747136,2.966245 1.2226562,3.3886719 1.0586562,3.8274146 1,4.3496985 1,5.0078125 v 7.0117185 c 0,0.659116 0.057656,1.182352 0.2226562,1.621094 0.164,0.439745 0.4628438,0.791647 0.8398438,1 C 2.5895,14.932118 3.245,14.981969 4,15 h 0.3945312 c 0.2135198,0.342557 0.545372,0.616049 0.9570313,0.771484 C 5.7922878,15.937904 6.3120365,16 6.9707031,16 V 15.998 C 6.9814352,15.998081 6.989194,16 7,16 h 4 c 0.329076,0 0.623156,-0.01641 0.890625,-0.05273 0.269792,-0.03629 0.512567,-0.09203 0.734375,-0.175782 0.440724,-0.16641 0.796052,-0.464338 1.005859,-0.841796 0.09435,-0.169736 0.157974,-0.356894 0.208985,-0.552735 0.01439,-0.05207 0.02525,-0.108424 0.03711,-0.162109 0.01923,-0.09344 0.03202,-0.192713 0.04492,-0.291016 0.03178,-0.223733 0.04665,-0.494337 0.05469,-0.748047 0.0018,-0.06122 0.01056,-0.113347 0.01172,-0.175781 h -0.0098 c 0.006,-0.323319 0.01953,-0.621298 0.01953,-1 V 9 c -0.0023,-0.4419915 -0.01321,-0.7961795 -0.02145,-1.1757812 -0.008,-0.25371 -0.02291,-0.5243136 -0.05469,-0.7480469 -0.0129,-0.098302 -0.02569,-0.197577 -0.04492,-0.2910157 -0.01186,-0.053685 -0.02272,-0.1100365 -0.03711,-0.1621093 C 13.788832,6.4272059 13.725204,6.2400482 13.630859,6.0703125 13.485077,5.8080388 13.265784,5.5879596 13,5.4199219 V 5.0078125 5 C 12.999481,4.3449489 12.93967,3.8255007 12.775391,3.3886719 12.624056,2.9664253 12.326831,2.6123883 11.9375,2.390625 11.4105,2.0991316 10.749,2.0483291 10,2.0292969 V 2.0039062 H 9 C 9,0.90404448 8.099,0 7,0 Z m 0,1.0019531 c 0.558,0 1,0.443007 1,1.0019531 C 8.005776,2.5595476 7.5547023,3.0115024 7,3.0058594 6.5965029,3.0111726 6.230835,2.7686852 6.078125,2.3945312 6.0264178,2.2708201 5.9998582,2.1380223 6,2.0039062 6,1.4449602 6.442,1.0019531 7,1.0019531 Z M 4,3.0449219 v 0.9609375 h 6 V 3.0449219 c 0.666,0.031053 1.204125,0.084422 1.453125,0.2226562 0.184,0.1001695 0.289719,0.2122155 0.386719,0.4726563 C 11.936345,3.9993371 11.999355,4.4118692 12,5 c 3e-6,0.00304 0,0.00477 0,0.00781 V 5.078122 C 11.96131,5.071822 11.9305,5.058095 11.890625,5.052731 11.623156,5.016408 11.329076,5 11,5 H 7 C 6.989194,5 6.981435,5.00192 6.970703,5.00195 V 5 C 6.3120365,5 5.7922878,5.0620956 5.3515625,5.2285156 4.9108382,5.3949256 4.55551,5.6928535 4.3457031,6.0703125 4.1489837,6.42423 4.0776276,6.8548082 4.0371094,7.3144531 c -0.00271,0.029386 -0.0055,0.063897 -0.00781,0.09375 C 3.9831335,7.9421203 4,8 4.0019531,9 v 3 c 0,0.378697 0.011586,0.676685 0.017578,1 h -0.03125 c 0.00389,0.210234 0.026515,0.396136 0.041016,0.591797 0.00231,0.02985 0.00511,0.06436 0.00781,0.09375 0.00905,0.102622 0.00705,0.216523 0.021484,0.314453 H 4 V 13.98437 C 3.328,13.954324 2.795875,13.89995 2.546875,13.761719 2.362875,13.661549 2.2571562,13.549503 2.1601562,13.289062 2.0631564,13.028621 2,12.612535 2,12.019531 V 5.0078125 C 2,4.4148087 2.063156,4.0006753 2.1601562,3.7402344 2.2581563,3.4797936 2.3619219,3.3687493 2.5449219,3.2675781 2.7939219,3.1293441 3.333,3.0769762 4,3.0449219 Z M 6.9707031,6 H 7 h 4 0.0059 c 0.591972,0 1.006778,0.062899 1.269532,0.1621094 0.262765,0.0992 0.377616,0.2075381 0.480468,0.3925781 C 12.895326,6.8055935 12.972389,7.340108 13,8 c 0.04862,1.6107585 0,3.34663 0,5 h -0.02344 c -0.02761,0.659892 -0.08124,1.194406 -0.220703,1.445312 -0.102852,0.18504 -0.217703,0.293379 -0.480468,0.392579 C 12.012637,14.9371 11.597831,15 11.005859,15 H 11 7 6.9707031 C 6.3787306,15 5.9639262,14.937101 5.7011719,14.837891 5.4384077,14.738691 5.3235555,14.630353 5.2207031,14.445312 5.0812362,14.194407 5.0276115,13.659892 5,13 V 8 C 5.0276115,7.340108 5.0812362,6.8055935 5.2207031,6.5546875 5.3235555,6.3696475 5.4384077,6.2613094 5.7011719,6.1621094 5.9639262,6.0628994 6.3787306,6 6.9707031,6 Z M 6.0078125,8.0120939 V 9.014047 H 12.019531 V 8.0120939 Z m 0,2.0039061 v 1.001953 H 12.019531 V 10.016 Z M 6,12.019906 v 1 h 3 v -1 z"
     id="path22"
     inkscape:connector-curvature="0"
     sodipodi:nodetypes="scccccsscccccccsscccccccccsccccccccccccccssccccscccccccsccsscccccccsccccccccssscccsccscccccccsccsccccccsccccccccccccccc" />
</svg>
