<?xml version="1.0" encoding="UTF-8" standalone="no"?>
<svg
   xmlns:dc="http://purl.org/dc/elements/1.1/"
   xmlns:cc="http://creativecommons.org/ns#"
   xmlns:rdf="http://www.w3.org/1999/02/22-rdf-syntax-ns#"
   xmlns:svg="http://www.w3.org/2000/svg"
   xmlns="http://www.w3.org/2000/svg"
   xmlns:sodipodi="http://sodipodi.sourceforge.net/DTD/sodipodi-0.dtd"
   xmlns:inkscape="http://www.inkscape.org/namespaces/inkscape"
   height="16.02"
   width="16"
   version="1.1"
   id="svg4"
   sodipodi:docname="edit-copy-symbolic.svg"
   inkscape:version="0.92.5 (2060ec1f9f, 2020-04-08)">
  <metadata
     id="metadata10">
    <rdf:RDF>
      <cc:Work
         rdf:about="">
        <dc:format>image/svg+xml</dc:format>
        <dc:type
           rdf:resource="http://purl.org/dc/dcmitype/StillImage" />
        <dc:title></dc:title>
      </cc:Work>
    </rdf:RDF>
  </metadata>
  <defs
     id="defs8" />
  <sodipodi:namedview
     pagecolor="#ffffff"
     bordercolor="#666666"
     borderopacity="1"
     objecttolerance="10"
     gridtolerance="10"
     guidetolerance="10"
     inkscape:pageopacity="0"
     inkscape:pageshadow="2"
     inkscape:window-width="1294"
     inkscape:window-height="704"
     id="namedview6"
     showgrid="false"
     inkscape:zoom="1"
     inkscape:cx="8"
     inkscape:cy="8.0100002"
     inkscape:window-x="72"
     inkscape:window-y="27"
     inkscape:window-maximized="1"
     inkscape:current-layer="svg4"
     showborder="true">
    <inkscape:grid
       type="xygrid"
       id="grid3940" />
  </sodipodi:namedview>
  <path
     style="color:#000000;overflow:visible;fill:#808080;marker:none"
     d="M 4.9941406 0.01953125 C 3.7361406 0.03453125 2.8155 -0.01070283 2.0625 0.40429688 C 1.673491 0.62659728 1.3757724 0.98056716 1.2246094 1.4023438 C 1.0596094 1.8393438 1 2.3625312 1 3.0195312 L 1 10.019531 C 1 10.677531 1.0596094 11.198719 1.2246094 11.636719 C 1.3886094 12.075719 1.6865 12.426766 2.0625 12.634766 C 2.3446106 12.79062 2.6619037 12.870207 3 12.923828 L 3 11.896484 C 2.8129678 11.861038 2.6522804 11.817227 2.5449219 11.757812 C 2.3609219 11.657814 2.2581563 11.545156 2.1601562 11.285156 C 2.0631563 11.025156 2 10.611531 2 10.019531 L 2 3.0195312 C 2 2.4275312 2.0631604 2.0139063 2.1601562 1.7539062 C 2.2581563 1.4939064 2.3609219 1.38225 2.5449219 1.28125 C 2.9099219 1.07925 3.739999 1.0345314 5 1.0195312 L 9 1.0195312 C 10.259 1.0345312 11.087125 1.0792502 11.453125 1.28125 C 11.637125 1.38125 11.742844 1.4939063 11.839844 1.7539062 C 11.865197 1.8218641 11.880185 1.9301409 11.900391 2.0195312 L 12.923828 2.0195312 C 12.888263 1.7993032 12.845491 1.5884289 12.775391 1.4023438 C 12.623977 0.98040666 12.326885 0.62641438 11.9375 0.40429688 C 11.1855 -0.01170313 10.263859 0.03453125 9.0058594 0.01953125 L 4.9980469 0.01953125 L 4.9941406 0.01953125 z M 7.9941406 3.0195312 C 6.7361406 3.0345313 5.8155 2.9892969 5.0625 3.4042969 C 4.6734907 3.6265973 4.3757727 3.9805673 4.2246094 4.4023438 C 4.0596094 4.8393438 4 5.3625313 4 6.0195312 L 4 13.019531 C 4 13.677531 4.059609 14.198719 4.2246094 14.636719 C 4.3886094 15.075719 4.6865 15.426766 5.0625 15.634766 C 5.8155 16.050766 6.7361406 16.004531 7.9941406 16.019531 L 12.005859 16.019531 C 13.263859 16.004531 14.1845 16.049771 14.9375 15.634766 C 15.326885 15.412649 15.623977 15.058656 15.775391 14.636719 C 15.939391 14.198719 16 13.676531 16 13.019531 L 16 6.0195312 C 16 5.3615313 15.940391 4.8403436 15.775391 4.4023438 C 15.623977 3.9804067 15.326885 3.6264144 14.9375 3.4042969 C 14.1855 2.9882969 13.263859 3.0345312 12.005859 3.0195312 L 7.9980469 3.0195312 L 7.9941406 3.0195312 z M 8 4.0195312 L 12 4.0195312 C 13.259 4.0345312 14.087125 4.0792502 14.453125 4.28125 C 14.637125 4.38125 14.742844 4.4939062 14.839844 4.7539062 C 14.936844 5.0139062 15 5.4275313 15 6.0195312 L 15 13.019531 C 15 13.611531 14.93684 14.025156 14.839844 14.285156 C 14.741844 14.545156 14.638078 14.656813 14.455078 14.757812 C 14.089077 14.959812 13.258 15.004531 12 15.019531 L 8 15.019531 C 6.741 15.004531 5.9099219 14.959811 5.5449219 14.757812 C 5.3609219 14.657813 5.2581562 14.545156 5.1601562 14.285156 C 5.0631563 14.025156 5 13.611531 5 13.019531 L 5 6.0195312 C 5 5.4275313 5.063156 5.0139062 5.1601562 4.7539062 C 5.2581562 4.4939063 5.3609219 4.38225 5.5449219 4.28125 C 5.9099219 4.07925 6.7399994 4.0345312 8 4.0195312 z M 7 6.0195312 L 7 7.0195312 L 13.019531 7.0195312 L 13.019531 6.0195312 L 7 6.0195312 z M 7 8.0195312 L 7 9.0195312 L 13.019531 9.0195312 L 13.019531 8.0195312 L 7 8.0195312 z M 6.9921875 10.019531 L 6.9921875 11.019531 L 10 11.019531 L 10 10.019531 L 6.9921875 10.019531 z "
     id="path2" />
  <g
     transform="translate(1,2.0200005)"
     style="fill:#808080"
     id="g3223" />
</svg>
